<svg xmlns="http://www.w3.org/2000/svg" viewBox="0 0 600 600" preserveAspectRatio="xMidYMid meet">
  <defs>
    <radialGradient id="bg" cx="50%" cy="30%" r="80%">
      <stop offset="0%" stop-color="#7c3aed" />
      <stop offset="60%" stop-color="#0ea5e9" />
      <stop offset="100%" stop-color="#0f172a" />
    </radialGradient>
    <linearGradient id="shine" x1="0" y1="0" x2="1" y2="1">
      <stop offset="0%" stop-color="rgba(255,255,255,0.35)" />
      <stop offset="100%" stop-color="rgba(255,255,255,0)" />
    </linearGradient>
  </defs>
  <rect width="600" height="600" fill="url(#bg)" />
  <circle cx="300" cy="320" r="140" fill="#111827" />
  <path d="M220 280c0-55 45-100 100-100s100 45 100 100v10H220v-10Z" fill="#1f2937" />
  <path d="M200 420c0-60 50-110 110-110s110 50 110 110v10H200v-10Z" fill="#111827" />
  <path d="M190 170c0 45 35 80 80 80s80-35 80-80-35-80-80-80-80 35-80 80Z" fill="#1f2937" />
  <path d="M190 170c0 45 35 80 80 80s80-35 80-80-35-80-80-80-80 35-80 80Z" fill="rgba(255,255,255,0.08)" />
  <rect x="0" y="0" width="600" height="600" fill="url(#shine)" />
</svg>
